# xmcd
#
# Track frame offsets:
#	150
#	18495
#	37235
#	54495
#	71228
#	92370
#	110020
#	128155
#	145483
#	161635
#	175905
#	187395
#	203833
#	220533
#	236578
#
# Disc length: 3381
#
# Revision: 1
# Processed by: cddbd v1.5.2PL0 Copyright (c) Steve Scherf et al.
# Submitted via: kJams Pro (development) 1.0patch48
#
DISCID=e30d330f
DTITLE=Various Artist - MM6041
DYEAR=1996
DGENRE=Country
TTITLE0=Garth Brooks - STANDING OUTSIDE THE FIRE...A
TTITLE1=Faith Hill (J.Joplin) - Piece of My Heart
TTITLE2=Vince Gill - Tryin' to Get Over You
TTITLE3=Neall McCoy - No Doubt About It
TTITLE4=Suzy Bogguss - Take it to the Limit
TTITLE5=Leroy Parnell - I'm Holding My Own
TTITLE6=Little Texas - My Love
TTITLE7=Trisha Yearwood - Better Your Heart Than Mine
TTITLE8=Blackhawk - Goodbye Says it All
TTITLE9=Billy Ray Cyrus - Words By Heart
TTITLE10=Tammy, Dolly and Loretta - Silver Threads and Golden Needles
TTITLE11=Allan Jackson - Who says You Can't Have it All
TTITLE12=Wynonna - Let's Make a Baby King
TTITLE13=Sammy Kershaw - I Can't Reach Her Anymore
TTITLE14=Pam Tillis - We've Tried Everything
EXTD=
EXTT0=
EXTT1=
EXTT2=
EXTT3=
EXTT4=
EXTT5=
EXTT6=
EXTT7=
EXTT8=
EXTT9=
EXTT10=
EXTT11=
EXTT12=
EXTT13=
EXTT14=
PLAYORDER=
